# File created by Blade
# Date/Time:  Tue Jan 27 19:00:36 2015
# Frame Rate: 120.000 fps
#------------------------------------------------------
:FULLY-SPECIFIED
:DEGREES
1866
root -1.019971 31.555616 -5.287419 4.918217 -16.038975 -5.795481
Spine 3.038724 -3.746634 -1.881581
Head 25.425023 -3.500902 1.374628
LeftShoulder -17.990691 17.541063 12.500578
LeftArm 3.400331 -39.097106 -77.373828
LeftForeArm 0.795669 0.000000 106.879474
LeftHand -13.714265 -0.000000 29.466270
LeftHandThumb1 -26.253704 0.000000 33.147579
RightShoulder -12.246310 -3.281329 -9.195084
RightArm 5.021387 -30.457369 83.715190
RightForeArm -22.052724 -0.000000 18.909940
RightHand -14.567120 0.000000 10.272011
RightHandThumb1 -24.326973 -0.000000 -32.862282
LeftUpLeg -9.023021 11.013253 -7.288681
LeftLeg 17.683435 -0.000000 -0.000000
LeftFoot -32.089949 31.834212 -20.618818
LeftToeBase 9.639645 -0.000000 -0.000000
RightUpLeg -40.658472 -28.563675 0.096301
RightLeg 2.347590 -0.000000 -0.000000
RightFoot -11.899760 -21.960315 12.717159
RightToeBase -1.471442 -0.000000 0.000000
1867
root -1.023700 31.560130 -5.293222 4.873264 -16.135201 -5.816363
Spine 3.060408 -3.744069 -1.903884
Head 25.540946 -3.421743 1.379043
LeftShoulder -18.022873 17.546778 12.510679
LeftArm 3.371251 -39.153935 -77.344385
LeftForeArm 0.814465 -0.000000 106.840027
LeftHand -13.717351 -0.000000 29.527514
LeftHandThumb1 -26.253704 0.000000 33.147579
RightShoulder -12.212019 -3.229422 -9.189361
RightArm 5.031410 -30.454940 83.665234
RightForeArm -22.058724 -0.000000 19.043914
RightHand -14.519488 -0.000000 10.191740
RightHandThumb1 -24.326973 -0.000000 -32.862282
LeftUpLeg -8.928505 11.060904 -7.247863
LeftLeg 17.574401 -0.000000 -0.000000
LeftFoot -32.064622 31.905308 -20.568076
LeftToeBase 9.810688 -0.000000 -0.000000
RightUpLeg -40.607323 -28.297933 -0.170681
RightLeg 2.753176 -0.000000 -0.000000
RightFoot -11.748293 -21.954720 12.722690
RightToeBase -1.617775 -0.000000 0.000000
1868
root -1.028837 31.565127 -5.297834 4.839204 -16.231007 -5.839923
Spine 3.060115 -3.719863 -1.919613
Head 25.662677 -3.357491 1.391272
LeftShoulder -18.040833 17.566834 12.510534
LeftArm 3.363717 -39.192990 -77.286243
LeftForeArm 0.836917 -0.000000 106.771169
LeftHand -13.742714 0.000000 29.704990
LeftHandThumb1 -26.253704 0.000000 33.147579
RightShoulder -12.218440 -3.219516 -9.180510
RightArm 5.082773 -30.452781 83.608413
RightForeArm -22.069426 -0.000000 19.165395
RightHand -14.503383 0.000000 10.173012
RightHandThumb1 -24.326973 -0.000000 -32.862282
LeftUpLeg -8.843749 11.121635 -7.211883
LeftLeg 17.484801 -0.000000 -0.000000
LeftFoot -32.040457 31.883735 -20.639736
LeftToeBase 9.730045 -0.000000 -0.000000
RightUpLeg -40.553844 -27.984109 -0.453902
RightLeg 3.220413 -0.000000 -0.000000
RightFoot -11.684247 -22.038373 12.830168
RightToeBase -1.334613 -0.000000 0.000000
1869
root -1.029763 31.568077 -5.301182 4.808509 -16.306993 -5.835287
Spine 3.043997 -3.734166 -1.949754
Head 25.768265 -3.274266 1.391471
LeftShoulder -18.070535 17.616307 12.491623
LeftArm 3.355320 -39.216882 -77.220825
LeftForeArm 0.798609 0.000000 106.738056
LeftHand -13.713616 -0.000000 29.575748
LeftHandThumb1 -26.253704 0.000000 33.147579
RightShoulder -12.194818 -3.218649 -9.191694
RightArm 5.131672 -30.424581 83.566847
RightForeArm -22.155575 -0.000000 19.274479
RightHand -14.484023 -0.000000 10.218190
RightHandThumb1 -24.326973 -0.000000 -32.862282
LeftUpLeg -8.773555 11.120944 -7.205070
LeftLeg 17.390604 -0.000000 -0.000000
LeftFoot -32.013531 31.975576 -20.583614
LeftToeBase 9.897470 -0.000000 -0.000000
RightUpLeg -40.525989 -27.709870 -0.745826
RightLeg 3.760906 -0.000000 -0.000000
RightFoot -11.534030 -22.165803 12.784917
RightToeBase -1.273052 -0.000000 0.000000
1870
root -1.035396 31.572194 -5.304278 4.789115 -16.369009 -5.858155
Spine 3.021285 -3.753405 -1.965389
Head 25.861360 -3.191793 1.419550
LeftShoulder -18.110491 17.646178 12.479614
LeftArm 3.335171 -39.210898 -77.110312
LeftForeArm 0.772355 -0.000000 106.684993
LeftHand -13.688725 -0.000000 29.627362
LeftHandThumb1 -26.253704 0.000000 33.147579
RightShoulder -12.191971 -3.214410 -9.183181
RightArm 5.172619 -30.399242 83.523783
RightForeArm -22.170536 -0.000000 19.377472
RightHand -14.466617 -0.000000 10.256310
RightHandThumb1 -24.326973 -0.000000 -32.862282
LeftUpLeg -8.712175 11.133954 -7.165475
LeftLeg 17.321268 -0.000000 -0.000000
LeftFoot -32.019709 31.992577 -20.632929
LeftToeBase 9.947111 -0.000000 -0.000000
RightUpLeg -40.474525 -27.356624 -1.081777
RightLeg 4.428199 -0.000000 -0.000000
RightFoot -11.443316 -22.264015 12.925531
RightToeBase -1.157725 -0.000000 0.000000
